<?xml version="1.0" standalone="no"?><!DOCTYPE svg PUBLIC "-//W3C//DTD SVG 1.1//EN" "http://www.w3.org/Graphics/SVG/1.1/DTD/svg11.dtd"><svg class="icon" width="200px" height="200.00px" viewBox="0 0 1024 1024" version="1.1" xmlns="http://www.w3.org/2000/svg"><path fill="#ffffff" d="M930.909091 879.709091c27.927273 9.309091 46.545455 18.618182 46.545454 27.927273 0 37.236364-209.454545 69.818182-465.454545 69.818181s-465.454545-32.581818-465.454545-69.818181c0-9.309091 18.618182-18.618182 46.545454-27.927273-55.854545 13.963636-93.090909 32.581818-93.090909 51.2 0 51.2 228.072727 93.090909 512 93.090909s512-41.890909 512-93.090909c0-18.618182-32.581818-37.236364-93.090909-51.2zM107.054545 851.781818c0 4.654545 0 4.654545 4.654546 4.654546l4.654545 4.654545 4.654546 4.654546s4.654545 0 4.654545 4.654545h9.309091l158.254546-27.927273c13.963636 0 23.272727-13.963636 18.618181-27.927272 0-13.963636-13.963636-23.272727-27.927272-18.618182l-125.672728 23.272727 23.272728-125.672727c0-13.963636-4.654545-23.272727-18.618182-27.927273-13.963636 0-23.272727 4.654545-27.927273 18.618182L107.054545 837.818182v13.963636zM837.818182 269.963636c9.309091 9.309091 23.272727 9.309091 32.581818 0l97.745455-97.745454c9.309091-9.309091 9.309091-23.272727 4.654545-32.581818L837.818182 4.654545c-9.309091-9.309091-23.272727-9.309091-32.581818 0l-97.745455 97.745455c-9.309091 13.963636-9.309091 27.927273 0 37.236364L837.818182 269.963636z m-69.818182-158.254545l46.545455-46.545455c4.654545-4.654545 13.963636-4.654545 18.618181 0l79.127273 79.127273c4.654545 4.654545 4.654545 13.963636 0 18.618182l-46.545454 46.545454c-4.654545 4.654545-13.963636 4.654545-18.618182 0l-79.127273-79.127272c-4.654545-4.654545-4.654545-13.963636 0-18.618182zM181.527273 665.6l130.327272 130.327273 18.618182 18.618182 18.618182-18.618182 18.618182-18.618182 442.181818-442.181818c9.309091-9.309091 9.309091-23.272727 0-32.581818-9.309091-9.309091-23.272727-9.309091-32.581818 0L335.127273 744.727273l-97.745455-97.745455 442.181818-442.181818c9.309091-9.309091 9.309091-23.272727 0-32.581818-9.309091-9.309091-23.272727-9.309091-32.581818 0l-442.181818 442.181818-18.618182 18.618182-18.618182 18.618182 13.963637 13.963636z"  /></svg>