<?xml version="1.0" standalone="no"?><!DOCTYPE svg PUBLIC "-//W3C//DTD SVG 1.1//EN" "http://www.w3.org/Graphics/SVG/1.1/DTD/svg11.dtd"><svg class="icon" width="200px" height="200.00px" viewBox="0 0 1024 1024" version="1.1" xmlns="http://www.w3.org/2000/svg"><path fill="#ffffff" d="M511.33 63.946C264.662 63.947 64.698 263.91 64.696 510.578c-0.003 244.997 201.64 446.642 446.638 446.641 246.669-0.001 446.634-199.966 446.635-446.635 0-244.996-201.643-446.638-446.639-446.638z m169.142 289.677c-29.027 5.945-75.675 27.168-102.902 100.184h45.594c17.673 0 32 14.327 32 32v40.089c0 17.673-14.327 32-32 32h-85.337s-50.346 175.4-200.686 202.736c-19.66 3.575-37.772-11.501-37.772-31.484v-40.224c0-15.195 10.785-28.118 25.666-31.186 34.51-7.115 96.638-43.303 140.876-202.038 46.272-166.036 150.287-199.95 205.068-205.902 18.861-2.049 35.283 12.86 35.283 31.832v40.603c0 15.28-10.821 28.325-25.79 31.39z"  /></svg>