<?xml version="1.0" standalone="no"?><!DOCTYPE svg PUBLIC "-//W3C//DTD SVG 1.1//EN" "http://www.w3.org/Graphics/SVG/1.1/DTD/svg11.dtd"><svg class="icon" width="200px" height="200.00px" viewBox="0 0 1024 1024" version="1.1" xmlns="http://www.w3.org/2000/svg"><path fill="#ffffff" d="M325.12 652.8l-133.12-107.52 133.12-107.52c10.24-10.24 10.24-25.6 0-35.84-10.24-10.24-25.6-10.24-35.84 0l-153.6 122.88c-5.12 5.12-7.68 12.8-7.68 20.48 0 7.68 2.56 12.8 7.68 17.92l153.6 122.88c10.24 10.24 25.6 10.24 35.84 0 10.24-7.68 10.24-23.04 0-33.28z m563.2-128l-153.6-122.88c-10.24-10.24-25.6-10.24-35.84 0-10.24 10.24-10.24 25.6 0 35.84l133.12 107.52-133.12 107.52c-10.24 10.24-10.24 25.6 0 35.84 10.24 10.24 25.6 10.24 35.84 0l153.6-122.88c5.12-5.12 7.68-12.8 7.68-17.92 0-10.24-2.56-17.92-7.68-23.04zM691.2 207.36c-12.8-7.68-28.16-2.56-35.84 10.24L335.36 834.56c-7.68 12.8-5.12 30.72 10.24 33.28 15.36 5.12 28.16 2.56 35.84-10.24l317.44-614.4c7.68-12.8 2.56-28.16-7.68-35.84z"  /></svg>