<?xml version="1.0" standalone="no"?><!DOCTYPE svg PUBLIC "-//W3C//DTD SVG 1.1//EN" "http://www.w3.org/Graphics/SVG/1.1/DTD/svg11.dtd"><svg class="icon" width="200px" height="200.00px" viewBox="0 0 1024 1024" version="1.1" xmlns="http://www.w3.org/2000/svg"><path fill="#ffffff" d="M369.066667 554.666667c-21.333333 0-36.266667 2.133333-49.066667 4.266667L320 725.333333l36.266667 0 0-59.733333c4.266667 0 8.533333 0 12.8 0 21.333333 0 38.4-6.4 51.2-17.066667 8.533333-8.533333 14.933333-23.466667 14.933333-40.533333s-6.4-29.866667-17.066667-38.4C407.466667 558.933333 392.533333 554.666667 369.066667 554.666667zM369.066667 635.733333c-4.266667 0-8.533333 0-12.8 0l0-49.066667c2.133333 0 8.533333-2.133333 14.933333-2.133333 17.066667 0 27.733333 8.533333 27.733333 25.6C398.933333 625.066667 388.266667 635.733333 369.066667 635.733333zM682.666667 42.666667l-64 0L213.333333 42.666667C166.4 42.666667 128 81.066667 128 128l0 768c0 46.933333 38.4 85.333333 85.333333 85.333333l597.333333 0c46.933333 0 85.333333-38.4 85.333333-85.333333L896 320l0-42.666667L682.666667 42.666667zM853.333333 896c0 23.466667-19.2 42.666667-42.666667 42.666667L213.333333 938.666667c-23.466667 0-42.666667-19.2-42.666667-42.666667L170.666667 128c0-23.466667 19.2-42.666667 42.666667-42.666667l384 0 0 213.333333c0 23.466667 19.2 42.666667 42.666667 42.666667l213.333333 0L853.333333 896zM640 298.666667 640 85.333333l21.333333 0 192 213.333333L640 298.666667zM509.866667 625.066667c-21.333333-8.533333-29.866667-12.8-29.866667-23.466667 0-8.533333 8.533333-17.066667 23.466667-17.066667 14.933333 0 27.733333 4.266667 34.133333 8.533333l8.533333-29.866667c-8.533333-4.266667-23.466667-8.533333-40.533333-8.533333-36.266667 0-59.733333 21.333333-59.733333 51.2 0 25.6 17.066667 40.533333 42.666667 49.066667 19.2 6.4 25.6 12.8 25.6 23.466667 0 10.666667-8.533333 19.2-25.6 19.2-14.933333 0-29.866667-4.266667-40.533333-10.666667l-6.4 32c8.533333 4.266667 27.733333 10.666667 44.8 10.666667 42.666667 0 64-23.466667 64-53.333333C552.533333 650.666667 539.733333 635.733333 509.866667 625.066667zM578.133333 558.933333 578.133333 725.333333c8.533333 2.133333 21.333333 2.133333 40.533333 2.133333 32 0 55.466667-6.4 72.533333-21.333333 14.933333-12.8 25.6-36.266667 25.6-68.266667 0-29.866667-10.666667-51.2-27.733333-64-14.933333-12.8-34.133333-17.066667-64-17.066667C608 554.666667 590.933333 556.8 578.133333 558.933333zM678.4 637.866667c0 40.533333-21.333333 59.733333-53.333333 59.733333-4.266667 0-8.533333 0-12.8 0l0-110.933333c2.133333 0 8.533333-2.133333 17.066667-2.133333C659.2 584.533333 678.4 603.733333 678.4 637.866667z"  /></svg>