<?xml version="1.0" standalone="no"?><!DOCTYPE svg PUBLIC "-//W3C//DTD SVG 1.1//EN" "http://www.w3.org/Graphics/SVG/1.1/DTD/svg11.dtd"><svg class="icon" width="200px" height="200.00px" viewBox="0 0 1024 1024" version="1.1" xmlns="http://www.w3.org/2000/svg"><path fill="#ffffff" d="M960.2 152h-418V81a30 30 0 0 0-60 0v71h-418a30 30 0 0 0 0 60h50v563.43A82.66 82.66 0 0 0 196.76 858h233.46l-70.8 70.8a30 30 0 1 0 42.43 42.43l101.83-101.85a12.06 12.06 0 0 1 17 0l101.88 101.83A30 30 0 0 0 665 928.79L594.18 858h232.46a82.66 82.66 0 0 0 82.56-82.56V212h51a30 30 0 1 0 0-60z m-111 623.44A22.59 22.59 0 0 1 826.64 798H196.76a22.59 22.59 0 0 1-22.56-22.56V212h675z"  /><path fill="#ffffff" d="M247.2 314.99l529 0 0 380-529 0 0-380Z"  /></svg>